<svg version="1.1" id="Layer_1" xmlns="http://www.w3.org/2000/svg" xmlns:xlink="http://www.w3.org/1999/xlink" x="0px" y="0px"
	 width="100%" viewBox="0 0 1538 1543" enable-background="new 0 0 1538 1543" xml:space="preserve">
<path fill="#E90000" opacity="1.000000" stroke="none" 
	d="
M1539.000000,447.000000 
	C1539.000000,469.354218 1539.000000,491.708466 1538.570801,514.566345 
	C1537.777466,515.534973 1537.132202,515.976501 1537.091064,516.468384 
	C1536.351562,525.335754 1535.859253,534.226868 1534.959106,543.076843 
	C1533.780640,554.665527 1532.872681,566.327393 1530.807861,577.770081 
	C1527.302246,597.198181 1523.564087,616.622375 1518.850098,635.784180 
	C1513.711914,656.671509 1507.835938,677.410767 1501.368164,697.926697 
	C1496.420288,713.621033 1490.259888,728.948975 1484.253296,744.289001 
	C1478.777710,758.272827 1473.299194,772.296692 1466.903442,785.870117 
	C1455.813721,809.406250 1444.838257,833.062317 1432.283813,855.823608 
	C1419.506958,878.988281 1405.217773,901.348511 1390.951172,923.651794 
	C1381.092896,939.063110 1370.709473,954.211243 1359.557007,968.704651 
	C1343.143921,990.034424 1326.120728,1010.914551 1308.816772,1031.532471 
	C1295.667603,1047.199951 1282.142944,1062.610962 1267.941772,1077.321777 
	C1250.208618,1095.691406 1231.868774,1113.499390 1213.307495,1131.038208 
	C1197.031006,1146.417969 1180.264893,1161.295166 1163.387329,1176.018677 
	C1146.281982,1190.941040 1128.909790,1205.566040 1111.405884,1220.020386 
	C1094.448730,1234.023193 1077.539673,1248.128662 1059.955688,1261.317505 
	C1033.383301,1281.248047 1006.614136,1300.961914 979.234192,1319.756226 
	C955.131592,1336.300781 930.230896,1351.706055 905.401794,1367.163208 
	C876.538574,1385.131958 847.566223,1402.943604 818.269531,1420.192139 
	C795.430725,1433.638306 772.179260,1446.410278 748.808777,1458.916748 
	C735.246643,1466.174438 721.312378,1472.848511 707.146362,1478.841431 
	C682.495239,1489.270386 657.771851,1499.619263 632.629700,1508.767700 
	C612.578674,1516.063721 591.997070,1522.029541 571.391541,1527.631592 
	C555.823181,1531.864502 539.911926,1534.955811 524.026184,1537.860352 
	C513.078064,1539.861938 501.908813,1540.645142 490.854370,1542.094727 
	C490.164856,1542.185181 489.614929,1543.340210 489.000000,1544.000000 
	C468.979095,1544.000000 448.958221,1544.000000 428.632996,1543.595459 
	C427.486755,1542.797974 426.682526,1542.218506 425.797424,1542.039673 
	C412.366028,1539.328003 398.691498,1537.497803 385.537811,1533.807495 
	C364.644135,1527.945801 345.837341,1517.616333 329.624603,1503.049316 
	C310.999054,1486.314331 297.308899,1466.017456 287.001617,1443.254883 
	C275.975342,1418.904419 270.570465,1393.231812 269.154846,1366.765259 
	C268.236877,1349.603638 269.234619,1332.446655 271.819550,1315.324951 
	C274.904175,1294.893555 279.607025,1274.884155 286.155304,1255.389160 
	C295.224182,1228.390259 305.926392,1201.971069 320.394257,1177.343994 
	C331.072510,1159.167603 342.080658,1141.138428 353.883942,1123.680664 
	C370.104309,1099.689941 389.149536,1077.950317 410.369293,1058.219604 
	C421.846100,1047.548096 433.621918,1037.182373 445.552856,1027.019043 
	C462.072113,1012.947144 480.509125,1001.607971 499.508911,991.311890 
	C518.380798,981.085205 538.253540,973.183594 559.275696,968.303406 
	C580.966370,963.268005 602.825989,961.339905 624.822266,965.168335 
	C644.907654,968.664185 664.022766,975.162109 681.604614,985.857727 
	C700.233887,997.190674 715.799133,1011.569946 725.497986,1031.253174 
	C733.495544,1047.483643 737.430786,1064.672485 735.165039,1083.130615 
	C733.688293,1095.160278 730.561157,1106.460693 725.322449,1117.321533 
	C716.997192,1134.581299 704.847656,1149.066528 691.674500,1162.599609 
	C678.585449,1176.046143 664.640808,1188.666382 650.942261,1201.511353 
	C638.025452,1213.623169 624.927673,1225.541870 611.932983,1237.570923 
	C598.082825,1250.391724 583.903625,1262.883179 570.517517,1276.172485 
	C554.499146,1292.074951 539.055481,1308.563477 523.572083,1324.995361 
	C508.317169,1341.184570 498.851685,1360.732544 492.274963,1381.701172 
	C489.665466,1390.021118 488.428497,1398.940063 492.178101,1407.210083 
	C494.098206,1411.445190 497.521667,1415.351440 501.119629,1418.397827 
	C508.153534,1424.353882 517.304016,1425.090088 525.810364,1424.730835 
	C537.706238,1424.228638 549.794861,1422.952148 561.321472,1420.081543 
	C591.496521,1412.566650 620.359497,1401.184814 648.179382,1387.309082 
	C666.906738,1377.968262 685.559875,1368.447510 703.926575,1358.421509 
	C733.800354,1342.114014 762.985352,1324.624878 790.838684,1305.013794 
	C809.030273,1292.205200 827.477722,1279.712158 845.097961,1266.151855 
	C867.991211,1248.533325 890.337524,1230.189819 912.614502,1211.789429 
	C929.370667,1197.948975 945.861023,1183.767090 962.069214,1169.288818 
	C974.994141,1157.743408 987.510925,1145.720337 999.848877,1133.544434 
	C1012.388855,1121.169312 1024.673950,1108.521973 1036.732666,1095.676758 
	C1051.178833,1080.288452 1065.501099,1064.770264 1079.440796,1048.924438 
	C1092.040283,1034.602051 1104.573975,1020.163635 1116.189941,1005.048950 
	C1130.339355,986.638000 1144.260498,967.960815 1156.896973,948.500488 
	C1173.277344,923.274170 1188.688232,897.390869 1203.783325,871.365173 
	C1218.424927,846.121277 1230.480835,819.530029 1239.771729,791.871643 
	C1245.630493,774.430725 1250.360474,756.549316 1254.522949,738.616272 
	C1259.130493,718.765015 1261.754639,698.518311 1261.926880,678.081909 
	C1262.013428,667.814270 1261.617188,657.520996 1260.921265,647.274536 
	C1260.276367,637.779968 1259.651367,628.187988 1257.762817,618.893860 
	C1253.783203,599.308899 1247.532959,580.453491 1237.533325,562.947144 
	C1228.549438,547.219116 1216.525635,534.332092 1202.108032,523.576904 
	C1190.870117,515.193604 1178.361450,509.460938 1165.116943,504.785095 
	C1146.610229,498.251495 1127.592651,495.457520 1108.189087,495.144165 
	C1098.328125,494.984924 1088.380859,495.848663 1078.583984,497.113190 
	C1066.109619,498.723267 1053.512695,500.320526 1041.395142,503.532074 
	C1025.031250,507.868958 1008.795532,513.016296 993.001282,519.103943 
	C964.064026,530.257263 935.128113,541.550964 906.873047,554.296570 
	C881.819580,565.598022 857.502075,578.594238 833.211792,591.504639 
	C812.413452,602.559082 791.741211,613.944641 771.674255,626.260864 
	C734.054565,649.350037 696.839966,673.103394 659.600281,696.805847 
	C637.819031,710.669250 616.313049,724.965271 594.686829,739.072266 
	C578.253296,749.792114 562.176819,761.113831 545.311035,771.103516 
	C521.382019,785.276733 497.062683,798.825012 472.540497,811.949707 
	C458.294464,819.574402 443.356689,825.915894 428.674225,832.713928 
	C404.944275,843.700867 380.602905,853.052551 355.746429,861.257629 
	C328.703491,870.184570 301.323883,877.330750 273.254364,882.173828 
	C251.749390,885.884399 230.107376,887.400391 208.381088,887.860352 
	C199.690460,888.044250 190.931091,886.966614 182.267456,885.926392 
	C172.040680,884.698547 161.755966,883.459351 151.723557,881.211243 
	C132.063202,876.805725 113.324776,869.924377 95.433113,860.332520 
	C72.548355,848.063721 52.834629,832.073853 36.740902,811.975342 
	C17.851788,788.385925 6.753998,761.180298 2.916945,731.100098 
	C2.818842,730.331055 1.662707,729.696960 1.000005,729.000000 
	C1.000000,709.645752 1.000000,690.291565 1.415968,670.438599 
	C2.176016,669.647095 2.766186,669.398621 2.828039,669.054993 
	C4.246487,661.175171 5.482210,653.260742 7.001748,645.401001 
	C12.176896,618.633057 21.547390,593.228210 32.920158,568.581482 
	C39.566952,554.176819 46.807278,540.004639 54.552105,526.159363 
	C62.766697,511.474365 71.269463,496.871124 80.781898,483.011566 
	C92.724800,465.610748 105.778824,448.969879 118.431427,432.059479 
	C135.162277,409.698395 153.727844,388.919434 173.417145,369.151581 
	C184.319473,358.205811 195.153564,347.129242 206.781509,336.986420 
	C218.876419,326.436340 231.797531,316.819366 244.525711,307.012848 
	C261.525391,293.915344 278.259521,280.410645 295.885590,268.204071 
	C319.067963,252.149658 342.832947,236.912857 366.668427,221.831802 
	C391.389893,206.190155 416.274261,190.779022 441.496429,175.963470 
	C464.774872,162.289658 488.338226,149.047562 512.252991,136.526199 
	C534.170837,125.050392 556.578064,114.471657 579.043823,104.090973 
	C599.361328,94.702911 619.716614,85.229080 640.650330,77.380257 
	C673.932068,64.901703 707.519531,53.156792 741.345093,42.240002 
	C762.571716,35.389385 784.441895,30.510365 806.074585,24.946077 
	C834.767151,17.565882 863.902649,12.451752 893.311584,9.053947 
	C913.880676,6.677472 934.531921,5.015381 955.135376,2.924446 
	C956.144897,2.821991 957.047546,1.665595 958.000000,0.999984 
	C986.020935,1.000000 1014.041809,1.000000 1042.385254,1.419191 
	C1044.220581,2.225481 1045.718506,2.854476 1047.249268,2.948213 
	C1050.237061,3.131164 1053.273315,2.741095 1056.236450,3.069012 
	C1070.256470,4.620592 1084.278198,6.187468 1098.261353,8.035616 
	C1110.100586,9.600395 1122.037842,10.888251 1133.664429,13.492022 
	C1152.903320,17.800549 1171.975464,22.887877 1191.029663,27.977867 
	C1215.998413,34.647884 1240.020386,44.042686 1263.413696,54.902660 
	C1288.848877,66.710495 1312.834106,80.927795 1335.589355,97.540756 
	C1357.407959,113.469910 1378.779175,129.781418 1398.101685,148.658936 
	C1412.657227,162.879318 1426.595459,177.613403 1439.379028,193.561600 
	C1456.964844,215.500687 1472.409302,238.757050 1485.656860,263.441101 
	C1500.761841,291.585999 1512.745117,321.075134 1521.457764,351.869232 
	C1529.958130,381.912750 1535.290039,412.463684 1537.078003,443.641388 
	C1537.144165,444.793854 1538.333862,445.881927 1539.000000,447.000000 
z"/>
<path fill="#000000" opacity="1.000000" stroke="none" 
	d="
M1.000005,729.468628 
	C1.662707,729.696960 2.818842,730.331055 2.916945,731.100098 
	C6.753998,761.180298 17.851788,788.385925 36.740902,811.975342 
	C52.834629,832.073853 72.548355,848.063721 95.433113,860.332520 
	C113.324776,869.924377 132.063202,876.805725 151.723557,881.211243 
	C161.755966,883.459351 172.040680,884.698547 182.267456,885.926392 
	C190.931091,886.966614 199.690460,888.044250 208.381088,887.860352 
	C230.107376,887.400391 251.749390,885.884399 273.254364,882.173828 
	C301.323883,877.330750 328.703491,870.184570 355.746429,861.257629 
	C380.602905,853.052551 404.944275,843.700867 428.674225,832.713928 
	C443.356689,825.915894 458.294464,819.574402 472.540497,811.949707 
	C497.062683,798.825012 521.382019,785.276733 545.311035,771.103516 
	C562.176819,761.113831 578.253296,749.792114 594.686829,739.072266 
	C616.313049,724.965271 637.819031,710.669250 659.600281,696.805847 
	C696.839966,673.103394 734.054565,649.350037 771.674255,626.260864 
	C791.741211,613.944641 812.413452,602.559082 833.211792,591.504639 
	C857.502075,578.594238 881.819580,565.598022 906.873047,554.296570 
	C935.128113,541.550964 964.064026,530.257263 993.001282,519.103943 
	C1008.795532,513.016296 1025.031250,507.868958 1041.395142,503.532074 
	C1053.512695,500.320526 1066.109619,498.723267 1078.583984,497.113190 
	C1088.380859,495.848663 1098.328125,494.984924 1108.189087,495.144165 
	C1127.592651,495.457520 1146.610229,498.251495 1165.116943,504.785095 
	C1178.361450,509.460938 1190.870117,515.193604 1202.108032,523.576904 
	C1216.525635,534.332092 1228.549438,547.219116 1237.533325,562.947144 
	C1247.532959,580.453491 1253.783203,599.308899 1257.762817,618.893860 
	C1259.651367,628.187988 1260.276367,637.779968 1260.921265,647.274536 
	C1261.617188,657.520996 1262.013428,667.814270 1261.926880,678.081909 
	C1261.754639,698.518311 1259.130493,718.765015 1254.522949,738.616272 
	C1250.360474,756.549316 1245.630493,774.430725 1239.771729,791.871643 
	C1230.480835,819.530029 1218.424927,846.121277 1203.783325,871.365173 
	C1188.688232,897.390869 1173.277344,923.274170 1156.896973,948.500488 
	C1144.260498,967.960815 1130.339355,986.638000 1116.189941,1005.048950 
	C1104.573975,1020.163635 1092.040283,1034.602051 1079.440796,1048.924438 
	C1065.501099,1064.770264 1051.178833,1080.288452 1036.732666,1095.676758 
	C1024.673950,1108.521973 1012.388855,1121.169312 999.848877,1133.544434 
	C987.510925,1145.720337 974.994141,1157.743408 962.069214,1169.288818 
	C945.861023,1183.767090 929.370667,1197.948975 912.614502,1211.789429 
	C890.337524,1230.189819 867.991211,1248.533325 845.097961,1266.151855 
	C827.477722,1279.712158 809.030273,1292.205200 790.838684,1305.013794 
	C762.985352,1324.624878 733.800354,1342.114014 703.926575,1358.421509 
	C685.559875,1368.447510 666.906738,1377.968262 648.179382,1387.309082 
	C620.359497,1401.184814 591.496521,1412.566650 561.321472,1420.081543 
	C549.794861,1422.952148 537.706238,1424.228638 525.810364,1424.730835 
	C517.304016,1425.090088 508.153534,1424.353882 501.119629,1418.397827 
	C497.521667,1415.351440 494.098206,1411.445190 492.178101,1407.210083 
	C488.428497,1398.940063 489.665466,1390.021118 492.274963,1381.701172 
	C498.851685,1360.732544 508.317169,1341.184570 523.572083,1324.995361 
	C539.055481,1308.563477 554.499146,1292.074951 570.517517,1276.172485 
	C583.903625,1262.883179 598.082825,1250.391724 611.932983,1237.570923 
	C624.927673,1225.541870 638.025452,1213.623169 650.942261,1201.511353 
	C664.640808,1188.666382 678.585449,1176.046143 691.674500,1162.599609 
	C704.847656,1149.066528 716.997192,1134.581299 725.322449,1117.321533 
	C730.561157,1106.460693 733.688293,1095.160278 735.165039,1083.130615 
	C737.430786,1064.672485 733.495544,1047.483643 725.497986,1031.253174 
	C715.799133,1011.569946 700.233887,997.190674 681.604614,985.857727 
	C664.022766,975.162109 644.907654,968.664185 624.822266,965.168335 
	C602.825989,961.339905 580.966370,963.268005 559.275696,968.303406 
	C538.253540,973.183594 518.380798,981.085205 499.508911,991.311890 
	C480.509125,1001.607971 462.072113,1012.947144 445.552856,1027.019043 
	C433.621918,1037.182373 421.846100,1047.548096 410.369293,1058.219604 
	C389.149536,1077.950317 370.104309,1099.689941 353.883942,1123.680664 
	C342.080658,1141.138428 331.072510,1159.167603 320.394257,1177.343994 
	C305.926392,1201.971069 295.224182,1228.390259 286.155304,1255.389160 
	C279.607025,1274.884155 274.904175,1294.893555 271.819550,1315.324951 
	C269.234619,1332.446655 268.236877,1349.603638 269.154846,1366.765259 
	C270.570465,1393.231812 275.975342,1418.904419 287.001617,1443.254883 
	C297.308899,1466.017456 310.999054,1486.314331 329.624603,1503.049316 
	C345.837341,1517.616333 364.644135,1527.945801 385.537811,1533.807495 
	C398.691498,1537.497803 412.366028,1539.328003 425.797424,1542.039673 
	C426.682526,1542.218506 427.486755,1542.797974 428.164307,1543.595459 
	C285.716797,1544.000000 143.433594,1544.000000 1.000000,1544.000000 
	C1.000000,1272.645752 1.000000,1001.291565 1.000005,729.468628 
z"/>
<path fill="#000000" opacity="1.000000" stroke="none" 
	d="
M489.468689,1544.000000 
	C489.614929,1543.340210 490.164856,1542.185181 490.854370,1542.094727 
	C501.908813,1540.645142 513.078064,1539.861938 524.026184,1537.860352 
	C539.911926,1534.955811 555.823181,1531.864502 571.391541,1527.631592 
	C591.997070,1522.029541 612.578674,1516.063721 632.629700,1508.767700 
	C657.771851,1499.619263 682.495239,1489.270386 707.146362,1478.841431 
	C721.312378,1472.848511 735.246643,1466.174438 748.808777,1458.916748 
	C772.179260,1446.410278 795.430725,1433.638306 818.269531,1420.192139 
	C847.566223,1402.943604 876.538574,1385.131958 905.401794,1367.163208 
	C930.230896,1351.706055 955.131592,1336.300781 979.234192,1319.756226 
	C1006.614136,1300.961914 1033.383301,1281.248047 1059.955688,1261.317505 
	C1077.539673,1248.128662 1094.448730,1234.023193 1111.405884,1220.020386 
	C1128.909790,1205.566040 1146.281982,1190.941040 1163.387329,1176.018677 
	C1180.264893,1161.295166 1197.031006,1146.417969 1213.307495,1131.038208 
	C1231.868774,1113.499390 1250.208618,1095.691406 1267.941772,1077.321777 
	C1282.142944,1062.610962 1295.667603,1047.199951 1308.816772,1031.532471 
	C1326.120728,1010.914551 1343.143921,990.034424 1359.557007,968.704651 
	C1370.709473,954.211243 1381.092896,939.063110 1390.951172,923.651794 
	C1405.217773,901.348511 1419.506958,878.988281 1432.283813,855.823608 
	C1444.838257,833.062317 1455.813721,809.406250 1466.903442,785.870117 
	C1473.299194,772.296692 1478.777710,758.272827 1484.253296,744.289001 
	C1490.259888,728.948975 1496.420288,713.621033 1501.368164,697.926697 
	C1507.835938,677.410767 1513.711914,656.671509 1518.850098,635.784180 
	C1523.564087,616.622375 1527.302246,597.198181 1530.807861,577.770081 
	C1532.872681,566.327393 1533.780640,554.665527 1534.959106,543.076843 
	C1535.859253,534.226868 1536.351562,525.335754 1537.091064,516.468384 
	C1537.132202,515.976501 1537.777466,515.534973 1538.570801,515.035034 
	C1539.000000,857.927917 1539.000000,1200.855835 1539.000000,1544.000000 
	C1189.312500,1544.000000 839.624878,1544.000000 489.468689,1544.000000 
z"/>
<path fill="#000000" opacity="1.000000" stroke="none" 
	d="
M957.531372,0.999984 
	C957.047546,1.665595 956.144897,2.821991 955.135376,2.924446 
	C934.531921,5.015381 913.880676,6.677472 893.311584,9.053947 
	C863.902649,12.451752 834.767151,17.565882 806.074585,24.946077 
	C784.441895,30.510365 762.571716,35.389385 741.345093,42.240002 
	C707.519531,53.156792 673.932068,64.901703 640.650330,77.380257 
	C619.716614,85.229080 599.361328,94.702911 579.043823,104.090973 
	C556.578064,114.471657 534.170837,125.050392 512.252991,136.526199 
	C488.338226,149.047562 464.774872,162.289658 441.496429,175.963470 
	C416.274261,190.779022 391.389893,206.190155 366.668427,221.831802 
	C342.832947,236.912857 319.067963,252.149658 295.885590,268.204071 
	C278.259521,280.410645 261.525391,293.915344 244.525711,307.012848 
	C231.797531,316.819366 218.876419,326.436340 206.781509,336.986420 
	C195.153564,347.129242 184.319473,358.205811 173.417145,369.151581 
	C153.727844,388.919434 135.162277,409.698395 118.431427,432.059479 
	C105.778824,448.969879 92.724800,465.610748 80.781898,483.011566 
	C71.269463,496.871124 62.766697,511.474365 54.552105,526.159363 
	C46.807278,540.004639 39.566952,554.176819 32.920158,568.581482 
	C21.547390,593.228210 12.176896,618.633057 7.001748,645.401001 
	C5.482210,653.260742 4.246487,661.175171 2.828039,669.054993 
	C2.766186,669.398621 2.176016,669.647095 1.415968,669.969971 
	C1.000000,447.059998 1.000000,224.119965 1.000000,1.000000 
	C319.687531,1.000000 638.375122,1.000000 957.531372,0.999984 
z"/>
<path fill="#000000" opacity="1.000000" stroke="none" 
	d="
M1539.000000,446.531372 
	C1538.333862,445.881927 1537.144165,444.793854 1537.078003,443.641388 
	C1535.290039,412.463684 1529.958130,381.912750 1521.457764,351.869232 
	C1512.745117,321.075134 1500.761841,291.585999 1485.656860,263.441101 
	C1472.409302,238.757050 1456.964844,215.500687 1439.379028,193.561600 
	C1426.595459,177.613403 1412.657227,162.879318 1398.101685,148.658936 
	C1378.779175,129.781418 1357.407959,113.469910 1335.589355,97.540756 
	C1312.834106,80.927795 1288.848877,66.710495 1263.413696,54.902660 
	C1240.020386,44.042686 1215.998413,34.647884 1191.029663,27.977867 
	C1171.975464,22.887877 1152.903320,17.800549 1133.664429,13.492022 
	C1122.037842,10.888251 1110.100586,9.600395 1098.261353,8.035616 
	C1084.278198,6.187468 1070.256470,4.620592 1056.236450,3.069012 
	C1053.273315,2.741095 1050.237061,3.131164 1047.249268,2.948213 
	C1045.718506,2.854476 1044.220581,2.225481 1042.853882,1.419191 
	C1208.256592,1.000000 1373.513062,1.000000 1539.000000,1.000000 
	C1539.000000,149.354141 1539.000000,297.708405 1539.000000,446.531372 
z"/>
</svg>